<svg xmlns="http://www.w3.org/2000/svg" width="1200" height="320" viewBox="0 0 1200 320" role="img" aria-labelledby="title description">
  <title id="title">Bili Insight</title>
  <desc id="description">Parse, preview, analyze and download Bilibili media in a secure local workspace.</desc>
  <rect width="1200" height="320" rx="24" fill="#111827"/>
  <rect x="28" y="28" width="1144" height="264" rx="18" fill="#172033" stroke="#34435e" stroke-width="2"/>

  <g transform="translate(72 70)">
    <rect width="180" height="180" rx="36" fill="#fb7299"/>
    <path d="M70 45 128 90 70 135Z" fill="#ffffff"/>
    <rect x="34" y="25" width="112" height="130" rx="26" fill="none" stroke="#ffffff" stroke-width="8"/>
    <path d="M58 24 43 8M122 24l15-16" fill="none" stroke="#ffffff" stroke-width="8" stroke-linecap="round"/>
  </g>

  <g transform="translate(302 79)">
    <text x="0" y="56" fill="#ffffff" font-family="Segoe UI, Arial, sans-serif" font-size="58" font-weight="700" letter-spacing="2">BILI INSIGHT</text>
    <text x="2" y="96" fill="#b9c4d8" font-family="Segoe UI, Arial, sans-serif" font-size="22">Parse · Preview · Analyze · Download</text>

    <g transform="translate(2 126)" font-family="Segoe UI, Arial, sans-serif" font-size="15" font-weight="600">
      <rect width="150" height="34" rx="7" fill="#243149" stroke="#fb7299"/>
      <circle cx="18" cy="17" r="5" fill="#fb7299"/>
      <text x="31" y="22" fill="#f7f9fc">BV / AV / SS / EP</text>

      <g transform="translate(160)">
        <rect width="132" height="34" rx="7" fill="#243149" stroke="#22d3ee"/>
        <circle cx="18" cy="17" r="5" fill="#22d3ee"/>
        <text x="31" y="22" fill="#f7f9fc">DASH Preview</text>
      </g>

      <g transform="translate(302)">
        <rect width="140" height="34" rx="7" fill="#243149" stroke="#34d399"/>
        <circle cx="18" cy="17" r="5" fill="#34d399"/>
        <text x="31" y="22" fill="#f7f9fc">Secure Cookie</text>
      </g>

      <g transform="translate(452)">
        <rect width="126" height="34" rx="7" fill="#243149" stroke="#fbbf24"/>
        <circle cx="18" cy="17" r="5" fill="#fbbf24"/>
        <text x="31" y="22" fill="#f7f9fc">FFmpeg Jobs</text>
      </g>
    </g>
  </g>

  <g transform="translate(906 66)">
    <rect width="210" height="188" rx="14" fill="#0d1422" stroke="#34435e" stroke-width="2"/>
    <rect x="18" y="18" width="174" height="92" rx="9" fill="#202b40"/>
    <path d="M34 89 61 67 85 76 111 42 137 58 176 33" fill="none" stroke="#22d3ee" stroke-width="4" stroke-linecap="round" stroke-linejoin="round"/>
    <circle cx="111" cy="42" r="6" fill="#fb7299"/>
    <rect x="18" y="128" width="78" height="10" rx="5" fill="#34d399"/>
    <rect x="104" y="128" width="88" height="10" rx="5" fill="#34435e"/>
    <rect x="18" y="151" width="126" height="8" rx="4" fill="#34435e"/>
    <rect x="151" y="151" width="41" height="8" rx="4" fill="#fbbf24"/>
  </g>
</svg>
